<svg width="152" height="210" viewBox="0 0 152 210" fill="none" xmlns="http://www.w3.org/2000/svg">
<g filter="url(#filter0_d_21_113)">
<rect x="11" y="10" width="121" height="172" rx="33.8647" fill="#353535"/>
</g>
<mask id="path-2-outside-1_21_113" maskUnits="userSpaceOnUse" x="30.3984" y="61.3877" width="80" height="69" fill="black">
<rect fill="white" x="30.3984" y="61.3877" width="80" height="69"/>
<path fill-rule="evenodd" clip-rule="evenodd" d="M69.9453 69.5141C72.7805 66.6789 77.3772 66.6789 80.2125 69.5141L100.792 90.0941C100.927 90.2289 101.056 90.3676 101.178 90.51C102.733 91.8416 103.718 93.8193 103.718 96.0272C103.718 97.2022 103.439 98.3121 102.944 99.294C102.591 100.105 102.083 100.865 101.419 101.528L80.8394 122.108C78.0042 124.943 73.4074 124.943 70.5722 122.108C67.737 119.273 67.737 114.676 70.5722 111.841L79.1258 103.287H43.6584C39.6488 103.287 36.3984 100.037 36.3984 96.0272C36.3984 92.0176 39.6488 88.7672 43.6584 88.7672H78.9312L69.9453 79.7813C67.1101 76.9461 67.1101 72.3493 69.9453 69.5141Z"/>
</mask>
<path fill-rule="evenodd" clip-rule="evenodd" d="M69.9453 69.5141C72.7805 66.6789 77.3772 66.6789 80.2125 69.5141L100.792 90.0941C100.927 90.2289 101.056 90.3676 101.178 90.51C102.733 91.8416 103.718 93.8193 103.718 96.0272C103.718 97.2022 103.439 98.3121 102.944 99.294C102.591 100.105 102.083 100.865 101.419 101.528L80.8394 122.108C78.0042 124.943 73.4074 124.943 70.5722 122.108C67.737 119.273 67.737 114.676 70.5722 111.841L79.1258 103.287H43.6584C39.6488 103.287 36.3984 100.037 36.3984 96.0272C36.3984 92.0176 39.6488 88.7672 43.6584 88.7672H78.9312L69.9453 79.7813C67.1101 76.9461 67.1101 72.3493 69.9453 69.5141Z" fill="white"/>
<path d="M80.2125 69.5141L84.4551 65.2715V65.2715L80.2125 69.5141ZM69.9453 69.5141L74.1879 73.7567V73.7567L69.9453 69.5141ZM100.792 90.0941L96.5498 94.3367L96.5498 94.3367L100.792 90.0941ZM101.178 90.51L96.6211 94.4137L96.923 94.766L97.2754 95.0678L101.178 90.51ZM102.944 99.294L97.5873 96.5905L97.5103 96.7431L97.4421 96.8998L102.944 99.294ZM101.419 101.528L97.1767 97.2854L101.419 101.528ZM80.8394 122.108L85.082 126.351L80.8394 122.108ZM79.1258 103.287L83.3684 107.53L93.6111 97.2872H79.1258V103.287ZM78.9312 88.7672V94.7672H93.4165L83.1738 84.5246L78.9312 88.7672ZM69.9453 79.7813L74.1879 75.5386L69.9453 79.7813ZM84.4551 65.2715C79.2767 60.0931 70.881 60.0931 65.7026 65.2715L74.1879 73.7567C74.68 73.2647 75.4778 73.2647 75.9698 73.7567L84.4551 65.2715ZM105.035 85.8514L84.4551 65.2715L75.9698 73.7567L96.5498 94.3367L105.035 85.8514ZM105.734 86.6064C105.512 86.3472 105.279 86.0953 105.035 85.8514L96.5498 94.3367C96.5755 94.3624 96.5992 94.3881 96.6211 94.4137L105.734 86.6064ZM109.718 96.0272C109.718 91.9931 107.91 88.3751 105.08 85.9523L97.2754 95.0678C97.5561 95.3081 97.7185 95.6454 97.7185 96.0272H109.718ZM108.3 101.997C109.209 100.196 109.718 98.1626 109.718 96.0272H97.7185C97.7185 96.2419 97.6694 96.4278 97.5873 96.5905L108.3 101.997ZM105.662 105.771C106.866 104.567 107.797 103.178 108.445 101.688L97.4421 96.8998C97.3844 97.0325 97.2996 97.1625 97.1767 97.2854L105.662 105.771ZM85.082 126.351L105.662 105.771L97.1767 97.2854L76.5968 117.865L85.082 126.351ZM66.3296 126.351C71.5079 131.529 79.9037 131.529 85.082 126.351L76.5968 117.865C76.1047 118.357 75.3069 118.357 74.8149 117.865L66.3296 126.351ZM66.3296 107.598C61.1512 112.777 61.1512 121.172 66.3296 126.351L74.8149 117.865C74.3228 117.373 74.3228 116.576 74.8148 116.083L66.3296 107.598ZM74.8832 99.0446L66.3296 107.598L74.8148 116.083L83.3684 107.53L74.8832 99.0446ZM43.6584 109.287H79.1258V97.2872H43.6584V109.287ZM30.3984 96.0272C30.3984 103.351 36.3351 109.287 43.6584 109.287V97.2872C42.9626 97.2872 42.3984 96.7231 42.3984 96.0272H30.3984ZM43.6584 82.7672C36.3351 82.7672 30.3984 88.7039 30.3984 96.0272H42.3984C42.3984 95.3313 42.9626 94.7672 43.6584 94.7672V82.7672ZM78.9312 82.7672H43.6584V94.7672H78.9312V82.7672ZM65.7026 84.0239L74.6886 93.0099L83.1738 84.5246L74.1879 75.5386L65.7026 84.0239ZM65.7026 65.2715C60.5243 70.4498 60.5243 78.8456 65.7026 84.0239L74.1879 75.5386C73.6958 75.0466 73.6958 74.2488 74.1879 73.7567L65.7026 65.2715Z" fill="#353535" mask="url(#path-2-outside-1_21_113)"/>
<defs>
<filter id="filter0_d_21_113" x="0" y="0" width="159" height="210" filterUnits="userSpaceOnUse" color-interpolation-filters="sRGB">
<feFlood flood-opacity="0" result="BackgroundImageFix"/>
<feColorMatrix in="SourceAlpha" type="matrix" values="0 0 0 0 0 0 0 0 0 0 0 0 0 0 0 0 0 0 127 0" result="hardAlpha"/>
<feOffset dx="8" dy="9"/>
<feGaussianBlur stdDeviation="9.5"/>
<feComposite in2="hardAlpha" operator="out"/>
<feColorMatrix type="matrix" values="0 0 0 0 0 0 0 0 0 0 0 0 0 0 0 0 0 0 0.65 0"/>
<feBlend mode="normal" in2="BackgroundImageFix" result="effect1_dropShadow_21_113"/>
<feBlend mode="normal" in="SourceGraphic" in2="effect1_dropShadow_21_113" result="shape"/>
</filter>
</defs>
</svg>
