<svg width="70" height="61" viewBox="0 0 70 61" fill="none" xmlns="http://www.w3.org/2000/svg">
<mask id="path-1-outside-1_21_91" maskUnits="userSpaceOnUse" x="-0.0390625" y="0.107422" width="70" height="61" fill="black">
<rect fill="white" x="-0.0390625" y="0.107422" width="70" height="61"/>
<path fill-rule="evenodd" clip-rule="evenodd" d="M35.1467 7.95739C37.6133 5.49077 41.6125 5.49076 44.0791 7.95739L61.9837 25.862C62.101 25.9792 62.2127 26.1 62.3188 26.2239C63.6719 27.3823 64.5294 29.1029 64.5294 31.0238C64.5294 32.0461 64.2865 33.0116 63.8553 33.8659C63.5483 34.5715 63.1062 35.2325 62.5291 35.8095L44.6246 53.7141C42.1579 56.1807 38.1588 56.1807 35.6921 53.7141C33.2255 51.2475 33.2255 47.2483 35.6921 44.7816L43.1337 37.34H12.2771C8.7888 37.34 5.96094 34.5121 5.96094 31.0238C5.96094 27.5355 8.7888 24.7076 12.2771 24.7076H42.9644L35.1467 16.8898C32.68 14.4232 32.68 10.424 35.1467 7.95739Z"/>
</mask>
<path fill-rule="evenodd" clip-rule="evenodd" d="M35.1467 7.95739C37.6133 5.49077 41.6125 5.49076 44.0791 7.95739L61.9837 25.862C62.101 25.9792 62.2127 26.1 62.3188 26.2239C63.6719 27.3823 64.5294 29.1029 64.5294 31.0238C64.5294 32.0461 64.2865 33.0116 63.8553 33.8659C63.5483 34.5715 63.1062 35.2325 62.5291 35.8095L44.6246 53.7141C42.1579 56.1807 38.1588 56.1807 35.6921 53.7141C33.2255 51.2475 33.2255 47.2483 35.6921 44.7816L43.1337 37.34H12.2771C8.7888 37.34 5.96094 34.5121 5.96094 31.0238C5.96094 27.5355 8.7888 24.7076 12.2771 24.7076H42.9644L35.1467 16.8898C32.68 14.4232 32.68 10.424 35.1467 7.95739Z" fill="white"/>
<path d="M44.0791 7.95739L47.7702 4.26629L47.7702 4.26629L44.0791 7.95739ZM35.1467 7.95739L38.8378 11.6485V11.6485L35.1467 7.95739ZM61.9837 25.862L58.2926 29.5531L58.2926 29.5531L61.9837 25.862ZM62.3188 26.2239L58.3546 29.62L58.6173 29.9266L58.9239 30.1891L62.3188 26.2239ZM63.8553 33.8659L59.1952 31.5139L59.1283 31.6466L59.0689 31.7829L63.8553 33.8659ZM62.5291 35.8095L58.838 32.1184L62.5291 35.8095ZM44.6246 53.7141L48.3157 57.4052L44.6246 53.7141ZM35.6921 53.7141L39.3832 50.023L39.3832 50.023L35.6921 53.7141ZM43.1337 37.34L46.8248 41.0311L55.7359 32.12H43.1337V37.34ZM42.9644 24.7076V29.9276H55.5666L46.6555 21.0165L42.9644 24.7076ZM35.1467 16.8898L38.8378 13.1988V13.1988L35.1467 16.8898ZM47.7702 4.26629C43.2651 -0.238871 35.9607 -0.238868 31.4556 4.2663L38.8378 11.6485C39.2659 11.2204 39.9599 11.2204 40.388 11.6485L47.7702 4.26629ZM65.6748 22.1709L47.7702 4.26629L40.388 11.6485L58.2926 29.5531L65.6748 22.1709ZM66.283 22.8278C66.0898 22.6022 65.8869 22.383 65.6748 22.1708L58.2926 29.5531C58.315 29.5755 58.3356 29.5978 58.3546 29.62L66.283 22.8278ZM69.7494 31.0238C69.7494 27.5142 68.1757 24.3665 65.7137 22.2586L58.9239 30.1891C59.1681 30.3981 59.3094 30.6917 59.3094 31.0238H69.7494ZM68.5154 36.2179C69.3063 34.6509 69.7494 32.8816 69.7494 31.0238H59.3094C59.3094 31.2106 59.2667 31.3723 59.1952 31.5139L68.5154 36.2179ZM66.2202 39.5006C67.2675 38.4534 68.0779 37.2446 68.6417 35.9489L59.0689 31.7829C59.0187 31.8984 58.945 32.0115 58.838 32.1184L66.2202 39.5006ZM48.3157 57.4052L66.2202 39.5006L58.838 32.1184L40.9335 50.023L48.3157 57.4052ZM32.001 57.4052C36.5062 61.9103 43.8105 61.9104 48.3157 57.4052L40.9335 50.023C40.5054 50.4511 39.8113 50.4511 39.3832 50.023L32.001 57.4052ZM32.001 41.0905C27.4959 45.5957 27.4959 52.9 32.001 57.4052L39.3832 50.023C38.9551 49.5949 38.9551 48.9008 39.3832 48.4727L32.001 41.0905ZM39.4426 33.6489L32.001 41.0905L39.3832 48.4727L46.8248 41.0311L39.4426 33.6489ZM12.2771 42.56H43.1337V32.12H12.2771V42.56ZM0.740937 31.0238C0.740937 37.3951 5.90588 42.56 12.2771 42.56V32.12C11.6717 32.12 11.1809 31.6292 11.1809 31.0238H0.740937ZM12.2771 19.4876C5.90587 19.4876 0.740937 24.6525 0.740937 31.0238H11.1809C11.1809 30.4184 11.6717 29.9276 12.2771 29.9276V19.4876ZM42.9644 19.4876H12.2771V29.9276H42.9644V19.4876ZM31.4556 20.5809L39.2733 28.3987L46.6555 21.0165L38.8378 13.1988L31.4556 20.5809ZM31.4556 4.2663C26.9504 8.77146 26.9504 16.0758 31.4556 20.5809L38.8378 13.1988C38.4097 12.7707 38.4097 12.0766 38.8378 11.6485L31.4556 4.2663Z" fill="#353535" mask="url(#path-1-outside-1_21_91)"/>
</svg>
